# xmcd
#
# Track frame offsets: 
#        150
#        10205
#        30012
#        43593
#        62498
#        80569
#        89293
#        103896
#        121833
#        147933
#
# Disc length: 2152 seconds
#
# Revision: 0
# Processed by: cddbd v1.5.2PL0 Copyright (c) Steve Scherf et al.
# Submitted via: ExactAudioCopy v0.99pb5
#
DISCID=7408660a
DTITLE=Selwyn Birchwood - Road Worn
DYEAR=2013
DGENRE=Blues
TTITLE0=FL Shuffle
TTITLE1=Big Eyes, Pinetop, 'n Sumlin
TTITLE2=Mean Roads
TTITLE3=What Lies Underneath
TTITLE4=Ybor Train
TTITLE5=Just Like A Woman
TTITLE6=FL Boy (2011)
TTITLE7=Found Love Today (2011)
TTITLE8=Lazarus (2011)
TTITLE9=Old Salty (2011)
EXTD=
EXTT0=
EXTT1=
EXTT2=
EXTT3=
EXTT4=
EXTT5=
EXTT6=
EXTT7=
EXTT8=
EXTT9=
PLAYORDER=
